# Blender 3.3.1
# www.blender.org
o Sphere
v 0.000000 0.354605 -0.935016
v 0.111216 0.970942 -0.211904
v 0.215968 0.885456 -0.411492
v 0.308168 0.748511 -0.587166
v 0.382460 0.568065 -0.728716
v 0.434524 0.354605 -0.827916
v 0.461335 0.120537 -0.879000
v 0.461335 -0.120537 -0.879000
v 0.434524 -0.354605 -0.827916
v 0.382460 -0.568065 -0.728716
v 0.308168 -0.748511 -0.587166
v 0.215968 -0.885456 -0.411492
v 0.111216 -0.970942 -0.211904
v 0.196953 0.970942 -0.135947
v 0.382460 0.885456 -0.263993
v 0.545739 0.748511 -0.376697
v 0.677302 0.568065 -0.467508
v 0.769503 0.354605 -0.531150
v 0.816983 0.120537 -0.563923
v 0.816983 -0.120537 -0.563923
v 0.769503 -0.354605 -0.531150
v 0.677302 -0.568065 -0.467508
v 0.545739 -0.748511 -0.376697
v 0.382460 -0.885456 -0.263993
v 0.196953 -0.970942 -0.135947
v 0.237571 0.970942 -0.028846
v 0.461335 0.885456 -0.056016
v 0.658288 0.748511 -0.079931
v 0.816983 0.568065 -0.099200
v 0.928199 0.354605 -0.112704
v 0.985471 0.120537 -0.119658
v 0.985471 -0.120537 -0.119658
v 0.928199 -0.354605 -0.112704
v 0.816983 -0.568065 -0.099200
v 0.658288 -0.748511 -0.079931
v 0.461335 -0.885456 -0.056016
v 0.237571 -0.970942 -0.028846
v 0.223764 0.970942 0.084863
v 0.434524 0.885456 0.164793
v 0.620030 0.748511 0.235147
v 0.769503 0.568065 0.291834
v 0.874255 0.354605 0.331561
v 0.928199 0.120537 0.352019
v 0.928199 -0.120537 0.352019
v 0.874255 -0.354605 0.331561
v 0.769503 -0.568065 0.291834
v 0.620030 -0.748511 0.235147
v 0.434524 -0.885456 0.164793
v 0.223764 -0.970942 0.084863
v 0.158696 0.970942 0.179130
v 0.308169 0.885456 0.347850
v 0.439732 0.748511 0.496354
v 0.545739 0.568065 0.616012
v 0.620030 0.354605 0.699870
v 0.658288 0.120537 0.743053
v 0.658288 -0.120537 0.743053
v 0.620030 -0.354605 0.699870
v 0.545739 -0.568065 0.616012
v 0.439732 -0.748511 0.496354
v 0.308169 -0.885456 0.347850
v 0.158696 -0.970942 0.179130
v 0.057272 0.970942 0.232362
v 0.111216 0.885456 0.451219
v 0.158696 0.748511 0.643854
v 0.196953 0.568065 0.799069
v 0.223764 0.354605 0.907846
v 0.237571 0.120537 0.963863
v 0.237571 -0.120537 0.963863
v 0.223764 -0.354605 0.907846
v 0.196953 -0.568065 0.799069
v 0.158696 -0.748511 0.643854
v 0.111216 -0.885456 0.451219
v 0.057272 -0.970942 0.232362
v -0.057272 0.970942 0.232362
v -0.111216 0.885456 0.451219
v -0.158696 0.748511 0.643854
v -0.196953 0.568065 0.799069
v -0.223764 0.354605 0.907846
v -0.237571 0.120537 0.963863
v -0.237571 -0.120537 0.963863
v -0.223764 -0.354605 0.907846
v -0.196953 -0.568065 0.799069
v -0.158696 -0.748511 0.643854
v -0.111216 -0.885456 0.451219
v -0.057272 -0.970942 0.232362
v -0.158696 0.970942 0.179130
v -0.308168 0.885456 0.347850
v -0.439732 0.748511 0.496354
v -0.545739 0.568065 0.616012
v -0.620030 0.354605 0.699870
v -0.658288 0.120537 0.743053
v -0.658288 -0.120537 0.743053
v -0.620030 -0.354605 0.699870
v -0.545739 -0.568065 0.616012
v -0.439732 -0.748511 0.496354
v -0.308168 -0.885456 0.347850
v -0.158696 -0.970942 0.179130
v 0.000000 -1.000000 0.000000
v -0.223764 0.970942 0.084863
v -0.434524 0.885456 0.164793
v -0.620030 0.748511 0.235147
v -0.769503 0.568065 0.291834
v -0.874255 0.354605 0.331561
v -0.928199 0.120537 0.352019
v -0.928199 -0.120537 0.352019
v -0.874255 -0.354605 0.331561
v -0.769503 -0.568065 0.291834
v -0.620030 -0.748511 0.235147
v -0.434524 -0.885456 0.164793
v -0.223764 -0.970942 0.084863
v -0.237571 0.970942 -0.028846
v -0.461335 0.885456 -0.056016
v -0.658288 0.748511 -0.079931
v -0.816983 0.568065 -0.099200
v -0.928199 0.354605 -0.112704
v -0.985471 0.120537 -0.119658
v -0.985471 -0.120537 -0.119658
v -0.928199 -0.354605 -0.112704
v -0.816983 -0.568065 -0.099200
v -0.658288 -0.748511 -0.079931
v -0.461335 -0.885456 -0.056016
v -0.237571 -0.970942 -0.028846
v 0.000000 1.000000 0.000000
v -0.196953 0.970942 -0.135947
v -0.382460 0.885456 -0.263993
v -0.545739 0.748511 -0.376697
v -0.677302 0.568065 -0.467508
v -0.769503 0.354605 -0.531150
v -0.816983 0.120537 -0.563923
v -0.816983 -0.120537 -0.563923
v -0.769503 -0.354605 -0.531150
v -0.677302 -0.568065 -0.467508
v -0.545739 -0.748511 -0.376697
v -0.382460 -0.885456 -0.263993
v -0.196953 -0.970942 -0.135947
v -0.111216 0.970942 -0.211904
v -0.215968 0.885456 -0.411492
v -0.308168 0.748511 -0.587166
v -0.382460 0.568065 -0.728716
v -0.434524 0.354605 -0.827916
v -0.461335 0.120537 -0.879000
v -0.461335 -0.120537 -0.879000
v -0.434524 -0.354605 -0.827916
v -0.382460 -0.568065 -0.728716
v -0.308168 -0.748511 -0.587166
v -0.215968 -0.885456 -0.411492
v -0.111216 -0.970942 -0.211904
v 0.000000 0.970942 -0.239316
v -0.000000 0.885456 -0.464723
v 0.000000 0.748511 -0.663123
v 0.000000 0.568065 -0.822984
v -0.000000 0.120537 -0.992709
v -0.000000 -0.120537 -0.992709
v 0.000000 -0.354605 -0.935016
v 0.000000 -0.568065 -0.822984
v 0.000000 -0.748511 -0.663123
v -0.000000 -0.885456 -0.464723
v 0.000000 -0.970942 -0.239316
vn 0.1814 -0.6521 -0.7361
vn 0.1387 0.8150 -0.5626
vn 0.1387 -0.8150 -0.5626
vn 0.1814 0.6521 -0.7361
vn 0.0871 -0.9315 -0.3533
vn 0.2132 0.4540 -0.8651
vn 0.0297 -0.9923 -0.1205
vn 0.2327 0.2327 -0.9443
vn 0.2393 -0.0000 -0.9709
vn 0.2327 -0.2327 -0.9443
vn 0.0297 0.9923 -0.1205
vn 0.2132 -0.4540 -0.8651
vn 0.0871 0.9315 -0.3533
vn 0.2413 -0.9315 -0.2723
vn 0.5908 0.4540 -0.6669
vn 0.0823 -0.9923 -0.0929
vn 0.6449 0.2327 -0.7280
vn 0.6631 -0.0000 -0.7485
vn 0.6449 -0.2327 -0.7280
vn 0.0823 0.9923 -0.0929
vn 0.5908 -0.4540 -0.6669
vn 0.2413 0.9315 -0.2723
vn 0.5027 -0.6521 -0.5675
vn 0.3842 0.8150 -0.4337
vn 0.3842 -0.8150 -0.4337
vn 0.5027 0.6521 -0.5675
vn 0.9350 -0.0000 -0.3546
vn 0.9093 -0.2327 -0.3449
vn 0.1160 0.9923 -0.0440
vn 0.8331 -0.4540 -0.3159
vn 0.3402 0.9315 -0.1290
vn 0.7089 -0.6521 -0.2688
vn 0.5418 0.8150 -0.2055
vn 0.5418 -0.8150 -0.2055
vn 0.7089 0.6521 -0.2688
vn 0.3402 -0.9315 -0.1290
vn 0.8331 0.4540 -0.3159
vn 0.1160 -0.9923 -0.0440
vn 0.9093 0.2327 -0.3449
vn 0.7526 -0.6521 0.0914
vn 0.5752 0.8150 0.0698
vn 0.5752 -0.8150 0.0698
vn 0.7526 0.6521 0.0914
vn 0.3612 -0.9315 0.0439
vn 0.8845 0.4540 0.1074
vn 0.1232 -0.9923 0.0150
vn 0.9654 0.2327 0.1172
vn 0.9927 -0.0000 0.1205
vn 0.9654 -0.2327 0.1172
vn 0.1232 0.9923 0.0150
vn 0.8845 -0.4540 0.1074
vn 0.3612 0.9315 0.0439
vn 0.7333 0.4540 0.5061
vn 0.1021 -0.9923 0.0705
vn 0.8004 0.2327 0.5525
vn 0.8230 -0.0000 0.5681
vn 0.8004 -0.2327 0.5525
vn 0.1021 0.9923 0.0705
vn 0.7333 -0.4540 0.5061
vn 0.2994 0.9315 0.2067
vn 0.6239 -0.6521 0.4307
vn 0.4768 0.8150 0.3291
vn 0.4768 -0.8150 0.3291
vn 0.6239 0.6521 0.4307
vn 0.2994 -0.9315 0.2067
vn 0.4520 -0.2327 0.8611
vn 0.0577 0.9923 0.1099
vn 0.4141 -0.4540 0.7889
vn 0.1691 0.9315 0.3222
vn 0.3523 -0.6521 0.6713
vn 0.2693 0.8150 0.5130
vn 0.2693 -0.8150 0.5130
vn 0.3523 0.6521 0.6713
vn 0.1691 -0.9315 0.3222
vn 0.4141 0.4540 0.7889
vn 0.0577 -0.9923 0.1099
vn 0.4520 0.2327 0.8611
vn 0.4647 -0.0000 0.8855
vn -0.0000 -0.6521 0.7581
vn -0.0000 0.8150 0.5794
vn -0.0000 -0.8150 0.5794
vn -0.0000 0.6521 0.7581
vn -0.0000 -0.9315 0.3638
vn -0.0000 0.4540 0.8910
vn -0.0000 -0.9923 0.1241
vn -0.0000 0.2327 0.9725
vn -0.0000 -0.0000 1.0000
vn -0.0000 -0.2327 0.9725
vn -0.0000 0.9923 0.1241
vn -0.0000 -0.4540 0.8910
vn -0.0000 0.9315 0.3638
vn -0.0577 -0.9923 0.1099
vn -0.4520 0.2327 0.8611
vn -0.4647 -0.0000 0.8855
vn -0.4520 -0.2327 0.8611
vn -0.0577 0.9923 0.1099
vn -0.4141 -0.4540 0.7889
vn -0.1691 0.9315 0.3222
vn -0.3523 -0.6521 0.6713
vn -0.2693 0.8150 0.5130
vn -0.2693 -0.8150 0.5130
vn -0.3523 0.6521 0.6713
vn -0.1691 -0.9315 0.3222
vn -0.4141 0.4540 0.7889
vn -0.8004 -0.2327 0.5525
vn -0.1021 0.9923 0.0705
vn -0.7333 -0.4540 0.5061
vn -0.2994 0.9315 0.2067
vn -0.6239 -0.6521 0.4307
vn -0.4768 0.8150 0.3291
vn -0.4768 -0.8150 0.3291
vn -0.6239 0.6521 0.4307
vn -0.2994 -0.9315 0.2067
vn -0.7333 0.4540 0.5061
vn -0.1021 -0.9923 0.0705
vn -0.8004 0.2327 0.5525
vn -0.8230 -0.0000 0.5681
vn -0.5752 0.8150 0.0698
vn -0.5752 -0.8150 0.0698
vn -0.7526 0.6521 0.0914
vn -0.3612 -0.9315 0.0439
vn -0.8845 0.4540 0.1074
vn -0.1232 -0.9923 0.0150
vn -0.9654 0.2327 0.1172
vn -0.9927 -0.0000 0.1205
vn -0.9654 -0.2327 0.1172
vn -0.1232 0.9923 0.0150
vn -0.8845 -0.4540 0.1074
vn -0.3612 0.9315 0.0439
vn -0.7526 -0.6521 0.0914
vn -0.1160 -0.9923 -0.0440
vn -0.9093 0.2327 -0.3449
vn -0.9350 -0.0000 -0.3546
vn -0.9093 -0.2327 -0.3449
vn -0.1160 0.9923 -0.0440
vn -0.8331 -0.4540 -0.3159
vn -0.3402 0.9315 -0.1290
vn -0.7089 -0.6521 -0.2688
vn -0.5418 0.8150 -0.2055
vn -0.5418 -0.8150 -0.2055
vn -0.7089 0.6521 -0.2688
vn -0.3402 -0.9315 -0.1290
vn -0.8331 0.4540 -0.3159
vn -0.0823 0.9923 -0.0929
vn -0.5908 -0.4540 -0.6669
vn -0.2413 0.9315 -0.2723
vn -0.5027 -0.6521 -0.5675
vn -0.3842 0.8150 -0.4337
vn -0.3842 -0.8150 -0.4337
vn -0.5027 0.6521 -0.5675
vn -0.2413 -0.9315 -0.2723
vn -0.5908 0.4540 -0.6669
vn -0.0823 -0.9923 -0.0929
vn -0.6449 0.2327 -0.7280
vn -0.6631 -0.0000 -0.7485
vn -0.6449 -0.2327 -0.7280
vn -0.1387 -0.8150 -0.5626
vn -0.1814 0.6521 -0.7361
vn -0.0871 -0.9315 -0.3533
vn -0.2132 0.4540 -0.8651
vn -0.0297 -0.9923 -0.1205
vn -0.2327 0.2327 -0.9443
vn -0.2393 -0.0000 -0.9709
vn -0.2327 -0.2327 -0.9443
vn -0.0297 0.9923 -0.1205
vn -0.2132 -0.4540 -0.8651
vn -0.0871 0.9315 -0.3533
vn -0.1814 -0.6521 -0.7361
vn -0.1387 0.8150 -0.5626
s 0
f 155//1 11//1 156//1
f 150//2 3//2 4//2
f 156//3 12//3 157//3
f 151//4 4//4 5//4
f 157//5 13//5 158//5
f 151//6 6//6 1//6
f 98//7 158//7 13//7
f 1//8 7//8 152//8
f 152//9 8//9 153//9
f 153//10 9//10 154//10
f 148//11 123//11 2//11
f 154//12 10//12 155//12
f 149//13 2//13 3//13
f 12//14 25//14 13//14
f 5//15 18//15 6//15
f 98//16 13//16 25//16
f 6//17 19//17 7//17
f 7//18 20//18 8//18
f 8//19 21//19 9//19
f 2//20 123//20 14//20
f 9//21 22//21 10//21
f 2//22 15//22 3//22
f 10//23 23//23 11//23
f 3//24 16//24 4//24
f 11//25 24//25 12//25
f 4//26 17//26 5//26
f 19//27 32//27 20//27
f 21//28 32//28 33//28
f 14//29 123//29 26//29
f 21//30 34//30 22//30
f 14//31 27//31 15//31
f 22//32 35//32 23//32
f 16//33 27//33 28//33
f 23//34 36//34 24//34
f 17//35 28//35 29//35
f 25//36 36//36 37//36
f 17//37 30//37 18//37
f 98//38 25//38 37//38
f 18//39 31//39 19//39
f 34//40 47//40 35//40
f 28//41 39//41 40//41
f 35//42 48//42 36//42
f 28//43 41//43 29//43
f 36//44 49//44 37//44
f 29//45 42//45 30//45
f 98//46 37//46 49//46
f 30//47 43//47 31//47
f 31//48 44//48 32//48
f 33//49 44//49 45//49
f 26//50 123//50 38//50
f 33//51 46//51 34//51
f 27//52 38//52 39//52
f 41//53 54//53 42//53
f 98//54 49//54 61//54
f 42//55 55//55 43//55
f 43//56 56//56 44//56
f 45//57 56//57 57//57
f 38//58 123//58 50//58
f 46//59 57//59 58//59
f 38//60 51//60 39//60
f 46//61 59//61 47//61
f 40//62 51//62 52//62
f 47//63 60//63 48//63
f 40//64 53//64 41//64
f 48//65 61//65 49//65
f 57//66 68//66 69//66
f 50//67 123//67 62//67
f 58//68 69//68 70//68
f 50//69 63//69 51//69
f 58//70 71//70 59//70
f 51//71 64//71 52//71
f 59//72 72//72 60//72
f 52//73 65//73 53//73
f 60//74 73//74 61//74
f 53//75 66//75 54//75
f 98//76 61//76 73//76
f 54//77 67//77 55//77
f 55//78 68//78 56//78
f 70//79 83//79 71//79
f 63//80 76//80 64//80
f 71//81 84//81 72//81
f 64//82 77//82 65//82
f 72//83 85//83 73//83
f 65//84 78//84 66//84
f 98//85 73//85 85//85
f 66//86 79//86 67//86
f 67//87 80//87 68//87
f 69//88 80//88 81//88
f 62//89 123//89 74//89
f 69//90 82//90 70//90
f 62//91 75//91 63//91
f 98//92 85//92 97//92
f 78//93 91//93 79//93
f 79//94 92//94 80//94
f 81//95 92//95 93//95
f 74//96 123//96 86//96
f 81//97 94//97 82//97
f 74//98 87//98 75//98
f 82//99 95//99 83//99
f 75//100 88//100 76//100
f 83//101 96//101 84//101
f 76//102 89//102 77//102
f 84//103 97//103 85//103
f 77//104 90//104 78//104
f 93//105 105//105 106//105
f 86//106 123//106 99//106
f 93//107 107//107 94//107
f 86//108 100//108 87//108
f 94//109 108//109 95//109
f 87//110 101//110 88//110
f 95//111 109//111 96//111
f 89//112 101//112 102//112
f 97//113 109//113 110//113
f 89//114 103//114 90//114
f 98//115 97//115 110//115
f 90//116 104//116 91//116
f 91//117 105//117 92//117
f 100//118 113//118 101//118
f 108//119 121//119 109//119
f 102//120 113//120 114//120
f 109//121 122//121 110//121
f 102//122 115//122 103//122
f 98//123 110//123 122//123
f 103//124 116//124 104//124
f 104//125 117//125 105//125
f 106//126 117//126 118//126
f 99//127 123//127 111//127
f 107//128 118//128 119//128
f 99//129 112//129 100//129
f 107//130 120//130 108//130
f 98//131 122//131 135//131
f 115//132 129//132 116//132
f 116//133 130//133 117//133
f 118//134 130//134 131//134
f 111//135 123//135 124//135
f 119//136 131//136 132//136
f 111//137 125//137 112//137
f 119//138 133//138 120//138
f 112//139 126//139 113//139
f 120//140 134//140 121//140
f 114//141 126//141 127//141
f 121//142 135//142 122//142
f 114//143 128//143 115//143
f 124//144 123//144 136//144
f 131//145 144//145 132//145
f 124//146 137//146 125//146
f 132//147 145//147 133//147
f 126//148 137//148 138//148
f 133//149 146//149 134//149
f 126//150 139//150 127//150
f 135//151 146//151 147//151
f 127//152 140//152 128//152
f 98//153 135//153 147//153
f 128//154 141//154 129//154
f 129//155 142//155 130//155
f 131//156 142//156 143//156
f 145//157 157//157 146//157
f 139//158 150//158 151//158
f 146//159 158//159 147//159
f 140//160 151//160 1//160
f 98//161 147//161 158//161
f 140//162 152//162 141//162
f 141//163 153//163 142//163
f 143//164 153//164 154//164
f 136//165 123//165 148//165
f 143//166 155//166 144//166
f 136//167 149//167 137//167
f 144//168 156//168 145//168
f 137//169 150//169 138//169
f 155//1 10//1 11//1
f 150//2 149//2 3//2
f 156//3 11//3 12//3
f 151//4 150//4 4//4
f 157//5 12//5 13//5
f 151//6 5//6 6//6
f 1//8 6//8 7//8
f 152//9 7//9 8//9
f 153//10 8//10 9//10
f 154//12 9//12 10//12
f 149//13 148//13 2//13
f 12//14 24//14 25//14
f 5//15 17//15 18//15
f 6//17 18//17 19//17
f 7//18 19//18 20//18
f 8//19 20//19 21//19
f 9//21 21//21 22//21
f 2//22 14//22 15//22
f 10//23 22//23 23//23
f 3//24 15//24 16//24
f 11//25 23//25 24//25
f 4//26 16//26 17//26
f 19//27 31//27 32//27
f 21//28 20//28 32//28
f 21//30 33//30 34//30
f 14//31 26//31 27//31
f 22//32 34//32 35//32
f 16//33 15//33 27//33
f 23//34 35//34 36//34
f 17//35 16//35 28//35
f 25//36 24//36 36//36
f 17//37 29//37 30//37
f 18//39 30//39 31//39
f 34//40 46//40 47//40
f 28//41 27//41 39//41
f 35//42 47//42 48//42
f 28//43 40//43 41//43
f 36//44 48//44 49//44
f 29//45 41//45 42//45
f 30//47 42//47 43//47
f 31//48 43//48 44//48
f 33//49 32//49 44//49
f 33//51 45//51 46//51
f 27//52 26//52 38//52
f 41//53 53//53 54//53
f 42//55 54//55 55//55
f 43//56 55//56 56//56
f 45//57 44//57 56//57
f 46//59 45//59 57//59
f 38//60 50//60 51//60
f 46//61 58//61 59//61
f 40//62 39//62 51//62
f 47//63 59//63 60//63
f 40//64 52//64 53//64
f 48//65 60//65 61//65
f 57//66 56//66 68//66
f 58//68 57//68 69//68
f 50//69 62//69 63//69
f 58//70 70//70 71//70
f 51//71 63//71 64//71
f 59//72 71//72 72//72
f 52//73 64//73 65//73
f 60//74 72//74 73//74
f 53//75 65//75 66//75
f 54//77 66//77 67//77
f 55//78 67//78 68//78
f 70//79 82//79 83//79
f 63//80 75//80 76//80
f 71//81 83//81 84//81
f 64//82 76//82 77//82
f 72//83 84//83 85//83
f 65//84 77//84 78//84
f 66//86 78//86 79//86
f 67//87 79//87 80//87
f 69//88 68//88 80//88
f 69//90 81//90 82//90
f 62//91 74//91 75//91
f 78//93 90//93 91//93
f 79//94 91//94 92//94
f 81//95 80//95 92//95
f 81//97 93//97 94//97
f 74//98 86//98 87//98
f 82//99 94//99 95//99
f 75//100 87//100 88//100
f 83//101 95//101 96//101
f 76//102 88//102 89//102
f 84//103 96//103 97//103
f 77//104 89//104 90//104
f 93//105 92//105 105//105
f 93//107 106//107 107//107
f 86//108 99//108 100//108
f 94//109 107//109 108//109
f 87//110 100//110 101//110
f 95//111 108//111 109//111
f 89//112 88//112 101//112
f 97//113 96//113 109//113
f 89//114 102//114 103//114
f 90//116 103//116 104//116
f 91//117 104//117 105//117
f 100//118 112//118 113//118
f 108//119 120//119 121//119
f 102//120 101//120 113//120
f 109//121 121//121 122//121
f 102//122 114//122 115//122
f 103//124 115//124 116//124
f 104//125 116//125 117//125
f 106//126 105//126 117//126
f 107//128 106//128 118//128
f 99//129 111//129 112//129
f 107//130 119//130 120//130
f 115//132 128//132 129//132
f 116//133 129//133 130//133
f 118//134 117//134 130//134
f 119//136 118//136 131//136
f 111//137 124//137 125//137
f 119//138 132//138 133//138
f 112//139 125//139 126//139
f 120//140 133//140 134//140
f 114//141 113//141 126//141
f 121//142 134//142 135//142
f 114//143 127//143 128//143
f 131//145 143//145 144//145
f 124//146 136//146 137//146
f 132//147 144//147 145//147
f 126//148 125//148 137//148
f 133//149 145//149 146//149
f 126//150 138//150 139//150
f 135//151 134//151 146//151
f 127//152 139//152 140//152
f 128//154 140//154 141//154
f 129//155 141//155 142//155
f 131//156 130//156 142//156
f 145//157 156//157 157//157
f 139//158 138//158 150//158
f 146//159 157//159 158//159
f 140//160 139//160 151//160
f 140//162 1//162 152//162
f 141//163 152//163 153//163
f 143//164 142//164 153//164
f 143//166 154//166 155//166
f 136//167 148//167 149//167
f 144//168 155//168 156//168
f 137//169 149//169 150//169
